<svg width="48" height="51" viewBox="0 0 48 51" fill="none" xmlns="http://www.w3.org/2000/svg">
<path d="M23.9648 1C24.4656 1.00006 24.9615 1.09751 25.4238 1.28809V1.28906L44.5908 9.2334H44.5918C45.9964 9.81432 46.9189 11.1889 46.9189 12.709C46.9189 34.233 33.6417 46.1419 25.4131 49.5518C24.4799 49.9368 23.4272 49.9372 22.4941 49.5518H22.4951C12.2024 45.2838 1.00002 32.0341 1 12.709C1 11.1899 1.92125 9.81589 3.33496 9.23438L3.33789 9.2334L22.5049 1.28809C22.9673 1.09744 23.464 1 23.9648 1ZM22.959 6.48242L22.9697 44.3193V45.9287L24.4131 45.2148C34.1238 40.4106 42.1825 29.1644 42.5195 13.7832L42.5342 13.0996L41.9023 12.8379L24.3428 5.55859L22.959 4.98535V6.48242Z" stroke="url(#paint0_linear_1_256)" stroke-width="2"/>
<defs>
<linearGradient id="paint0_linear_1_256" x1="23.9594" y1="0" x2="23.9594" y2="50.8406" gradientUnits="userSpaceOnUse">
<stop stop-color="#70148E"/>
<stop offset="1" stop-color="#200628"/>
</linearGradient>
</defs>
</svg>
