<svg width="36" height="51" viewBox="0 0 36 51" fill="none" xmlns="http://www.w3.org/2000/svg">
<path d="M24.9229 42.3076L24.9199 45.1143C24.9195 45.4852 24.8212 45.8499 24.6348 46.1738L24.5498 46.3105L22.8193 48.8613H22.8184C22.6159 49.1599 22.3401 49.4066 22.0137 49.5781C21.6871 49.7498 21.3209 49.8408 20.9482 49.8408H14.6992C14.3266 49.8408 13.9603 49.7498 13.6338 49.5781C13.3075 49.4065 13.0315 49.1598 12.8291 48.8613L11.0986 46.3105L11.0977 46.3096C10.8564 45.9543 10.7282 45.5375 10.7275 45.1133L10.7236 42.3076H24.9229ZM17.7705 1C27.1053 0.971826 34.6465 8.37793 34.6465 17.4766C34.6464 21.6242 33.08 25.4096 30.4902 28.3066C28.8588 30.1319 26.3658 33.806 25.1982 37.1309H10.4482C9.28068 33.8062 6.7886 30.132 5.15723 28.3066C2.5675 25.4096 1.0001 21.6242 1 17.4766C1 8.77527 8.00609 1.02921 17.7705 1ZM17.8232 5.35547C11.0353 5.35557 5.48145 10.7734 5.48145 17.4766C5.48166 18.9249 6.67283 20.0645 8.10156 20.0645C9.5303 20.0645 10.7215 18.9249 10.7217 17.4766C10.7217 13.6674 13.89 10.5323 17.8232 10.5322C19.2521 10.5322 20.4434 9.39188 20.4434 7.94336C20.4431 6.49503 19.252 5.35547 17.8232 5.35547Z" stroke="url(#paint0_linear_1_254)" stroke-width="2"/>
<defs>
<linearGradient id="paint0_linear_1_254" x1="17.8234" y1="0" x2="17.8234" y2="50.8406" gradientUnits="userSpaceOnUse">
<stop stop-color="#70148E"/>
<stop offset="1" stop-color="#200628"/>
</linearGradient>
</defs>
</svg>
