<svg width="68" height="51" viewBox="0 0 68 51" fill="none" xmlns="http://www.w3.org/2000/svg">
<path d="M1 4.25C1.00017 1.48126 4.23218 0.00891868 6.33398 1.75293L31.834 22.998C33.3866 24.2978 33.3863 26.6951 31.834 27.9951L6.33301 49.2422L6.33203 49.2432C4.23553 50.9931 1.00016 49.5191 1 46.7441V4.25ZM35.002 4.25C35.0021 1.48118 38.2341 0.00869272 40.3359 1.75293L65.8359 22.999C67.3879 24.2989 67.3879 26.6952 65.8359 27.9951L40.335 49.2422L40.334 49.2432C38.2375 50.9933 35.0021 49.5192 35.002 46.7441V4.25Z" stroke="url(#paint0_linear_1_255)" stroke-width="2"/>
<defs>
<linearGradient id="paint0_linear_1_255" x1="34" y1="0" x2="34" y2="51" gradientUnits="userSpaceOnUse">
<stop stop-color="#70148E"/>
<stop offset="1" stop-color="#200628"/>
</linearGradient>
</defs>
</svg>
