<svg width="50" height="50" viewBox="0 0 50 50" fill="none" xmlns="http://www.w3.org/2000/svg">
<path d="M20.1416 1.47363C35.5133 -1.51998 48.953 10.108 49 24.8799C48.9886 27.8251 46.5925 30.2538 43.6621 30.2539H35.8789C30.254 30.2539 26.5563 36.0221 28.9229 41.0771L29.04 41.3174C30.6309 44.4401 28.8647 48.3271 25.627 48.8301C19.8188 49.7301 12.9074 46.9913 7.85645 41.7207C2.83403 36.4798 -0.248042 28.8328 1.4873 20.0615C3.32246 10.7828 10.8326 3.29066 20.1416 1.47363ZM9.37402 24.0039C7.09319 24.0039 5.24902 25.8481 5.24902 28.1289C5.24904 30.4097 7.09321 32.2539 9.37402 32.2539C11.6548 32.2539 13.499 30.4097 13.499 28.1289C13.499 25.8481 11.6549 24.0039 9.37402 24.0039ZM12.499 11.5039C10.2182 11.504 8.37402 13.3481 8.37402 15.6289C8.37415 17.9096 10.2183 19.7539 12.499 19.7539C14.7798 19.7539 16.6239 17.9096 16.624 15.6289C16.624 13.3481 14.7799 11.5039 12.499 11.5039ZM37.5 11.5039C35.2192 11.5039 33.375 13.3481 33.375 15.6289C33.3751 17.9096 35.2192 19.7539 37.5 19.7539C39.7806 19.7537 41.6249 17.9095 41.625 15.6289C41.625 13.3482 39.7807 11.5041 37.5 11.5039ZM24.999 5.25391C22.7184 5.25411 20.874 7.0982 20.874 9.37891C20.8742 11.6595 22.7185 13.5037 24.999 13.5039C27.2797 13.5039 29.1238 11.6596 29.124 9.37891C29.124 7.09807 27.2799 5.25391 24.999 5.25391Z" stroke="url(#paint0_linear_1_257)" stroke-width="2"/>
<defs>
<linearGradient id="paint0_linear_1_257" x1="25" y1="0" x2="25" y2="50" gradientUnits="userSpaceOnUse">
<stop stop-color="#70148E"/>
<stop offset="1" stop-color="#200628"/>
</linearGradient>
</defs>
</svg>
