<svg width="841" height="472" viewBox="0 0 841 472" fill="none" xmlns="http://www.w3.org/2000/svg">
<g clip-path="url(#clip0_175_175)">
<path fill-rule="evenodd" clip-rule="evenodd" d="M196.806 249.103C196.806 249.103 185.533 255.663 204.838 257.879C228.233 260.551 240.182 260.166 265.955 255.291C265.955 255.291 272.74 259.539 282.212 263.215C224.42 287.978 151.42 261.782 196.806 249.103ZM189.742 216.788C189.742 216.788 177.094 226.149 196.417 228.147C221.408 230.728 241.135 230.939 275.292 224.366C275.292 224.366 280.008 229.153 287.43 231.769C217.566 252.203 139.757 233.377 189.742 216.788Z" fill="#3174B9"/>
<path fill-rule="evenodd" clip-rule="evenodd" d="M249.269 161.964C263.516 178.363 245.535 193.111 245.535 193.111C245.535 193.111 281.693 174.45 265.086 151.072C249.58 129.281 237.687 118.455 302.066 81.1227C302.066 81.1227 201.008 106.352 249.269 161.964Z" fill="#CA3132"/>
<path fill-rule="evenodd" clip-rule="evenodd" d="M325.701 273.007C325.701 273.007 334.046 279.888 316.508 285.209C283.159 295.31 177.682 298.356 148.383 285.611C137.859 281.027 157.605 274.672 163.818 273.33C170.297 271.93 173.994 272.184 173.994 272.184C162.282 263.937 98.2906 288.382 141.495 295.395C259.307 314.498 356.255 286.796 325.701 273.007ZM202.23 183.302C202.23 183.302 148.584 196.047 183.236 200.68C197.872 202.637 227.026 202.186 254.204 199.906C276.408 198.043 298.696 194.056 298.696 194.056C298.696 194.056 290.873 197.414 285.204 201.278C230.718 215.61 125.478 208.935 155.779 194.284C181.397 181.891 202.23 183.302 202.23 183.302ZM298.474 237.092C353.856 208.32 328.25 180.664 310.372 184.391C306.001 185.305 304.039 186.093 304.039 186.093C304.039 186.093 305.67 183.542 308.77 182.445C344.132 170.018 371.322 219.106 297.369 238.547C297.367 238.547 298.219 237.778 298.474 237.092Z" fill="#3174B9"/>
<path fill-rule="evenodd" clip-rule="evenodd" d="M265.085 20.8237C265.085 20.8237 295.75 51.5083 235.992 98.6774C188.069 136.529 225.066 158.105 235.977 182.765C207.998 157.527 187.476 135.305 201.242 114.628C221.454 84.2766 277.458 69.5576 265.085 20.8237Z" fill="#CA3132"/>
<path fill-rule="evenodd" clip-rule="evenodd" d="M207.678 315.083C260.83 318.482 342.467 313.195 344.404 288.04C344.404 288.04 340.686 297.575 300.472 305.139C255.1 313.68 199.13 312.686 165.945 307.208C165.945 307.208 172.745 312.835 207.678 315.083Z" fill="#3174B9"/>
<path fill-rule="evenodd" clip-rule="evenodd" d="M341.948 360.193H340.332V359.287H344.693V360.193H343.077V364.718H341.948V360.193ZM350.651 360.418H350.631L349.025 364.715H348.288L346.691 360.418H346.672V364.715H345.599V359.284H347.173L348.652 363.126L350.131 359.284H351.691V364.715H350.653L350.651 360.418ZM198.969 411.187C193.956 415.531 188.657 417.974 183.9 417.974C177.122 417.974 173.444 413.902 173.444 407.386C173.444 400.332 177.381 395.17 193.141 395.17H198.966L198.969 411.187ZM212.804 426.795V378.477C212.804 366.128 205.762 357.979 188.785 357.979C178.88 357.979 170.197 360.425 163.137 363.543L165.17 372.101C170.731 370.059 177.92 368.166 184.977 368.166C194.757 368.166 198.966 372.101 198.966 380.248V386.357H194.079C170.322 386.357 159.601 395.574 159.601 409.431C159.601 421.371 166.666 428.159 179.965 428.159C188.513 428.159 194.899 424.63 200.862 419.466L201.946 426.795H212.804ZM258.979 426.795H241.728L220.956 359.208H236.025L248.917 400.741L251.787 413.219C258.291 395.17 262.907 376.846 265.216 359.208H279.869C275.946 381.462 268.879 405.895 258.979 426.795ZM325.184 411.187C320.157 415.531 314.858 417.974 310.11 417.974C303.332 417.974 299.659 413.902 299.659 407.386C299.659 400.332 303.599 395.17 319.349 395.17H325.184V411.187ZM339.024 426.795V378.477C339.024 366.128 331.96 357.979 315 357.979C305.085 357.979 296.405 360.425 289.345 363.543L291.378 372.101C296.939 370.059 304.143 368.166 311.202 368.166C320.968 368.166 325.182 372.101 325.182 380.248V386.357H320.294C296.535 386.357 285.822 395.574 285.822 409.431C285.822 421.371 292.871 428.159 306.173 428.159C314.728 428.159 321.105 424.63 327.082 419.466L328.172 426.795H339.024ZM144.432 438.279C140.489 444.041 134.113 448.603 127.141 451.176L120.31 443.13C125.621 440.405 130.17 436.004 132.289 431.91C134.113 428.261 134.874 423.57 134.874 412.34V335.17H149.579V411.275C149.579 426.295 148.379 432.365 144.432 438.279Z" fill="#CA3132"/>
</g>
<g clip-path="url(#clip1_175_175)">
<path d="M685.473 81C612.282 81 611.496 109.41 611.496 115.258C611.496 124.129 611.496 150.75 611.496 150.75H686.882V161.406C686.882 161.406 608.39 161.406 581.553 161.406C559.151 161.406 531 175.026 531 235.383C531 290.825 552.959 312.266 575.121 312.266C581.702 312.266 601.455 312.266 601.455 312.266C601.455 312.266 601.455 284.746 601.455 275.277C601.455 259.802 609.123 231.156 644.871 231.156C689.709 231.156 701.153 231.156 719.641 231.156C730.637 231.156 761.648 226.376 761.648 190.557C761.648 152.647 761.648 140.14 761.648 122.303C761.651 113.418 760.132 81 685.473 81ZM643.905 104.867C651.407 104.867 657.469 110.926 657.469 118.431C657.469 125.93 651.407 131.995 643.905 131.995C636.403 131.995 630.341 125.933 630.341 118.431C630.341 110.926 636.403 104.867 643.905 104.867Z" fill="url(#paint0_linear_175_175)"/>
<path d="M686.529 391C759.686 391 760.596 362.054 760.596 356.742C760.596 347.87 760.596 321.25 760.596 321.25H685.12V310.594C685.12 310.594 764.119 310.594 790.449 310.594C813.02 310.594 841.002 296.633 841.002 236.617C841.002 170.891 811.304 159.734 796.88 159.734C790.297 159.734 770.547 159.734 770.547 159.734C770.547 159.734 770.547 188.525 770.547 196.723C770.547 212.198 763.133 240.844 727.13 240.844C682.293 240.844 672.243 240.844 652.358 240.844C641.39 240.844 610.351 246.188 610.351 281.443C610.351 322.236 610.351 332.917 610.351 349.697C610.351 364.436 619.357 391 686.529 391ZM728.1 367.133C720.598 367.133 714.536 361.071 714.536 353.569C714.536 346.067 720.595 340.005 728.1 340.005C735.599 340.005 741.664 346.067 741.664 353.569C741.664 361.071 735.599 367.133 728.1 367.133Z" fill="url(#paint1_linear_175_175)"/>
</g>
<defs>
<linearGradient id="paint0_linear_175_175" x1="560.051" y1="108.692" x2="714.142" y2="263.299" gradientUnits="userSpaceOnUse">
<stop stop-color="#387EB8"/>
<stop offset="1" stop-color="#366994"/>
</linearGradient>
<linearGradient id="paint1_linear_175_175" x1="653.697" y1="207.471" x2="818.905" y2="365.749" gradientUnits="userSpaceOnUse">
<stop stop-color="#FFE052"/>
<stop offset="1" stop-color="#FFC331"/>
</linearGradient>
<clipPath id="clip0_175_175">
<rect width="472" height="472" fill="white"/>
</clipPath>
<clipPath id="clip1_175_175">
<rect width="310" height="310" fill="white" transform="translate(531 81)"/>
</clipPath>
</defs>
</svg>
