<svg width="1056" height="131" viewBox="0 0 1056 131" fill="none" xmlns="http://www.w3.org/2000/svg">
<g clip-path="url(#clip0_10_201)">
<path d="M141.5 130.77L66 0H176.5L190.5 24.2487H113L174.5 130.77H141.5Z" fill="#004BFE"/>
<path d="M75.5 130.77L0 0H110.5L124.5 24.2487H47L108.5 130.77H75.5Z" fill="#1B1B1B"/>
<path d="M233.039 5.14631H250.607V126H233.039V5.14631ZM278.407 59.0092V72.7163H242.885V59.0092H278.407ZM285.744 5.14631V19.2395H242.306V5.14631H285.744ZM343.86 83.9136V98.0067H304.283V83.9136H343.86ZM359.111 126H341.543L323.396 20.2048L306.986 126H289.418L310.847 5.14631H336.137L359.111 126ZM406.172 106.308V76.7705C406.172 74.4538 405.786 72.9737 405.014 72.3302C404.37 71.5579 402.89 71.1718 400.573 71.1718H386.287C380.109 71.1718 375.605 69.6917 372.773 66.7315C370.07 63.7713 368.719 59.524 368.719 53.9897V22.1353C368.719 16.601 370.135 12.4181 372.966 9.58663C375.926 6.62642 380.495 5.14631 386.673 5.14631H405.593C411.899 5.14631 416.468 6.62642 419.3 9.58663C422.131 12.4181 423.547 16.601 423.547 22.1353V39.8966H405.979V24.8381C405.979 22.5214 405.593 21.0413 404.82 20.3978C404.177 19.6256 402.632 19.2395 400.187 19.2395H392.079C389.762 19.2395 388.218 19.6256 387.445 20.3978C386.673 21.0413 386.287 22.5214 386.287 24.8381V51.6731C386.287 53.861 386.673 55.3411 387.445 56.1134C388.218 56.8856 389.762 57.2717 392.079 57.2717H406.172C412.35 57.2717 416.854 58.7518 419.686 61.712C422.517 64.5435 423.933 68.7264 423.933 74.2607V109.011C423.933 114.545 422.453 118.793 419.493 121.753C416.661 124.584 412.157 126 405.979 126H387.059C380.881 126 376.312 124.584 373.352 121.753C370.521 118.793 369.105 114.545 369.105 109.011V91.2497H386.673V106.308C386.673 108.496 387.059 109.976 387.831 110.748C388.604 111.521 390.148 111.907 392.465 111.907H400.573C402.89 111.907 404.37 111.521 405.014 110.748C405.786 109.976 406.172 108.496 406.172 106.308ZM452.564 7.463H469.939V126H452.564V7.463ZM490.21 5.14631V19.2395H432.293V5.14631H490.21ZM501.132 5.14631H518.7V126H501.132V5.14631ZM546.5 59.0092V72.7163H510.978V59.0092H546.5ZM553.836 5.14631V19.2395H510.399V5.14631H553.836ZM604.423 89.3192V24.8381C604.423 22.5214 604.037 21.0413 603.265 20.3978C602.621 19.6256 601.077 19.2395 598.632 19.2395H592.261V5.14631H603.844C610.151 5.14631 614.72 6.62642 617.551 9.58663C620.511 12.4181 621.991 16.601 621.991 22.1353V89.3192H604.423ZM604.423 106.308V81.2108H621.991V109.011C621.991 114.545 620.511 118.793 617.551 121.753C614.72 124.584 610.151 126 603.844 126H591.102V111.907H598.632C601.077 111.907 602.621 111.521 603.265 110.748C604.037 109.976 604.423 108.496 604.423 106.308ZM581.836 24.8381V89.5122H564.267V22.1353C564.267 16.601 565.683 12.4181 568.515 9.58663C571.475 6.62642 576.108 5.14631 582.415 5.14631H593.998V19.2395H587.627C585.311 19.2395 583.766 19.6256 582.994 20.3978C582.222 21.0413 581.836 22.5214 581.836 24.8381ZM581.836 79.8594V106.308C581.836 108.496 582.222 109.976 582.994 110.748C583.766 111.521 585.311 111.907 587.627 111.907H593.612V126H582.415C576.108 126 571.475 124.584 568.515 121.753C565.683 118.793 564.267 114.545 564.267 109.011V79.8594H581.836ZM681.179 57.6578V24.8381C681.179 22.5214 680.792 21.0413 680.02 20.3978C679.377 19.6256 677.832 19.2395 675.387 19.2395H643.339V5.14631H680.599C686.906 5.14631 691.475 6.62642 694.306 9.58663C697.267 12.4181 698.747 16.601 698.747 22.1353V59.9745C698.747 65.6375 697.267 69.9491 694.306 72.9093C691.475 75.7408 686.906 77.1566 680.599 77.1566H649.517V63.2565H675.387C677.832 63.2565 679.377 62.8704 680.02 62.0981C680.792 61.3259 681.179 59.8458 681.179 57.6578ZM641.023 5.14631H658.398V126H641.023V5.14631ZM665.348 70.2065H683.109L704.925 126H686.005L665.348 70.2065ZM805.794 5.14631H823.169L803.863 126H779.924L766.217 35.2632L752.896 126H728.764L709.458 5.14631H727.413L740.927 110.169L756.564 5.14631H776.063L791.508 110.169L805.794 5.14631ZM881.931 83.9136V98.0067H842.354V83.9136H881.931ZM897.182 126H879.614L861.467 20.2048L845.057 126H827.489L848.918 5.14631H874.208L897.182 126ZM949.648 57.6578V24.8381C949.648 22.5214 949.262 21.0413 948.49 20.3978C947.847 19.6256 946.302 19.2395 943.857 19.2395H911.809V5.14631H949.069C955.376 5.14631 959.945 6.62642 962.776 9.58663C965.737 12.4181 967.217 16.601 967.217 22.1353V59.9745C967.217 65.6375 965.737 69.9491 962.776 72.9093C959.945 75.7408 955.376 77.1566 949.069 77.1566H917.987V63.2565H943.857C946.302 63.2565 947.847 62.8704 948.49 62.0981C949.262 61.3259 949.648 59.8458 949.648 57.6578ZM909.493 5.14631H926.868V126H909.493V5.14631ZM933.818 70.2065H951.579L973.394 126H954.475L933.818 70.2065ZM1028.9 50.3217V24.452C1028.9 22.1353 1028.51 20.6552 1027.74 20.0117C1026.96 19.2395 1025.42 18.8534 1023.1 18.8534H994.724V5.14631H1028.51C1034.69 5.14631 1039.19 6.62642 1042.02 9.58663C1044.98 12.4181 1046.46 16.601 1046.46 22.1353V50.3217H1028.9ZM1028.9 106.694V45.8813H1046.46V109.011C1046.46 114.545 1044.98 118.793 1042.02 121.753C1039.19 124.584 1034.69 126 1028.51 126H994.724V112.293H1023.1C1025.42 112.293 1026.96 111.907 1027.74 111.135C1028.51 110.362 1028.9 108.882 1028.9 106.694ZM986.423 5.14631H1003.99V126H986.423V5.14631Z" fill="#1B1B1B"/>
</g>
<defs>
<clipPath id="clip0_10_201">
<rect width="1056" height="131" fill="white"/>
</clipPath>
</defs>
</svg>
