<svg width="154" height="20" viewBox="0 0 154 20" fill="none" xmlns="http://www.w3.org/2000/svg">
<g clip-path="url(#clip0_122_138)">
<path d="M20.5454 18.9874L9.58299 0H25.6272L27.66 3.52084H16.4072L25.3369 18.9874H20.5454Z" fill="white"/>
<path d="M10.9624 18.9874L1.90735e-06 0H16.0443L18.077 3.52084H6.82425L15.7539 18.9874H10.9624Z" fill="#1B1B1B"/>
<path d="M33.9276 1.07596H36.4784V18.6235H33.9276V1.07596ZM40.5149 8.89668V10.8869H35.3572V8.89668H40.5149ZM41.5801 1.07596V3.12224H35.2731V1.07596H41.5801ZM50.0184 12.5127V14.559H44.272V12.5127H50.0184ZM52.2329 18.6235H49.682L47.0471 3.2624L44.6644 18.6235H42.1136L45.2251 1.07596H48.8972L52.2329 18.6235ZM59.0659 15.7643V11.4756C59.0659 11.1392 59.0099 10.9243 58.8978 10.8308C58.8043 10.7187 58.5894 10.6627 58.253 10.6627H56.1787C55.2817 10.6627 54.6277 10.4477 54.2165 10.0179C53.8241 9.58812 53.6279 8.97143 53.6279 8.16787V3.54271C53.6279 2.73915 53.8334 2.1318 54.2446 1.72068C54.6744 1.29086 55.3378 1.07596 56.2348 1.07596H58.9818C59.8975 1.07596 60.5609 1.29086 60.9721 1.72068C61.3832 2.1318 61.5888 2.73915 61.5888 3.54271V6.12159H59.0379V3.93515C59.0379 3.59877 58.9818 3.38387 58.8697 3.29043C58.7763 3.1783 58.552 3.12224 58.197 3.12224H57.0197C56.6833 3.12224 56.459 3.1783 56.3469 3.29043C56.2348 3.38387 56.1787 3.59877 56.1787 3.93515V7.8315C56.1787 8.14918 56.2348 8.36409 56.3469 8.47621C56.459 8.58834 56.6833 8.6444 57.0197 8.6444H59.0659C59.9629 8.6444 60.617 8.85931 61.0281 9.28912C61.4393 9.70025 61.6448 10.3076 61.6448 11.1112V16.1568C61.6448 16.9603 61.4299 17.577 61.0001 18.0068C60.589 18.418 59.9349 18.6235 59.0379 18.6235H56.2908C55.3938 18.6235 54.7304 18.418 54.3006 18.0068C53.8895 17.577 53.6839 16.9603 53.6839 16.1568V13.5779H56.2348V15.7643C56.2348 16.082 56.2908 16.2969 56.403 16.4091C56.5151 16.5212 56.7393 16.5773 57.0757 16.5773H58.253C58.5894 16.5773 58.8043 16.5212 58.8978 16.4091C59.0099 16.2969 59.0659 16.082 59.0659 15.7643ZM65.802 1.41233H68.3248V18.6235H65.802V1.41233ZM71.2681 1.07596V3.12224H62.8587V1.07596H71.2681ZM72.8538 1.07596H75.4047V18.6235H72.8538V1.07596ZM79.4412 8.89668V10.8869H74.2834V8.89668H79.4412ZM80.5064 1.07596V3.12224H74.1993V1.07596H80.5064ZM87.8514 13.2976V3.93515C87.8514 3.59877 87.7954 3.38387 87.6832 3.29043C87.5898 3.1783 87.3655 3.12224 87.0105 3.12224H86.0855V1.07596H87.7673C88.683 1.07596 89.3464 1.29086 89.7576 1.72068C90.1874 2.1318 90.4023 2.73915 90.4023 3.54271V13.2976H87.8514ZM87.8514 15.7643V12.1203H90.4023V16.1568C90.4023 16.9603 90.1874 17.577 89.7576 18.0068C89.3464 18.418 88.683 18.6235 87.7673 18.6235H85.9173V16.5773H87.0105C87.3655 16.5773 87.5898 16.5212 87.6832 16.4091C87.7954 16.2969 87.8514 16.082 87.8514 15.7643ZM84.5718 3.93515V13.3256H82.0209V3.54271C82.0209 2.73915 82.2265 2.1318 82.6376 1.72068C83.0674 1.29086 83.7402 1.07596 84.6559 1.07596H86.3377V3.12224H85.4127C85.0763 3.12224 84.8521 3.1783 84.74 3.29043C84.6278 3.38387 84.5718 3.59877 84.5718 3.93515ZM84.5718 11.9241V15.7643C84.5718 16.082 84.6278 16.2969 84.74 16.4091C84.8521 16.5212 85.0763 16.5773 85.4127 16.5773H86.2817V18.6235H84.6559C83.7402 18.6235 83.0674 18.418 82.6376 18.0068C82.2265 17.577 82.0209 16.9603 82.0209 16.1568V11.9241H84.5718ZM98.996 8.70047V3.93515C98.996 3.59877 98.94 3.38387 98.8279 3.29043C98.7344 3.1783 98.5102 3.12224 98.1551 3.12224H93.5019V1.07596H98.912C99.8276 1.07596 100.491 1.29086 100.902 1.72068C101.332 2.1318 101.547 2.73915 101.547 3.54271V9.03684C101.547 9.85909 101.332 10.4851 100.902 10.9149C100.491 11.3261 99.8276 11.5316 98.912 11.5316H94.3989V9.51337H98.1551C98.5102 9.51337 98.7344 9.45731 98.8279 9.34518C98.94 9.23306 98.996 9.01815 98.996 8.70047ZM93.1655 1.07596H95.6884V18.6235H93.1655V1.07596ZM96.6975 10.5225H99.2764L102.444 18.6235H99.6968L96.6975 10.5225ZM117.09 1.07596H119.613L116.809 18.6235H113.334L111.343 5.44884L109.409 18.6235H105.905L103.102 1.07596H105.709L107.671 16.325L109.942 1.07596H112.773L115.015 16.325L117.09 1.07596ZM128.145 12.5127V14.559H122.398V12.5127H128.145ZM130.359 18.6235H127.808L125.173 3.2624L122.791 18.6235H120.24L123.351 1.07596H127.023L130.359 18.6235ZM137.977 8.70047V3.93515C137.977 3.59877 137.921 3.38387 137.809 3.29043C137.715 3.1783 137.491 3.12224 137.136 3.12224H132.483V1.07596H137.893C138.809 1.07596 139.472 1.29086 139.883 1.72068C140.313 2.1318 140.528 2.73915 140.528 3.54271V9.03684C140.528 9.85909 140.313 10.4851 139.883 10.9149C139.472 11.3261 138.809 11.5316 137.893 11.5316H133.38V9.51337H137.136C137.491 9.51337 137.715 9.45731 137.809 9.34518C137.921 9.23306 137.977 9.01815 137.977 8.70047ZM132.147 1.07596H134.669V18.6235H132.147V1.07596ZM135.678 10.5225H138.257L141.425 18.6235H138.678L135.678 10.5225ZM149.483 7.63528V3.87909C149.483 3.54271 149.427 3.3278 149.315 3.23437C149.203 3.12224 148.979 3.06618 148.642 3.06618H144.522V1.07596H149.427C150.324 1.07596 150.978 1.29086 151.39 1.72068C151.819 2.1318 152.034 2.73915 152.034 3.54271V7.63528H149.483ZM149.483 15.8204V6.99056H152.034V16.1568C152.034 16.9603 151.819 17.577 151.39 18.0068C150.978 18.418 150.324 18.6235 149.427 18.6235H144.522V16.6333H148.642C148.979 16.6333 149.203 16.5773 149.315 16.4651C149.427 16.353 149.483 16.1381 149.483 15.8204ZM143.317 1.07596H145.867V18.6235H143.317V1.07596Z" fill="white"/>
</g>
<defs>
<clipPath id="clip0_122_138">
<rect width="154" height="19.1404" fill="white"/>
</clipPath>
</defs>
</svg>
