<svg width="1230" height="514" viewBox="0 0 1230 514" fill="none" xmlns="http://www.w3.org/2000/svg">
<g clip-path="url(#clip0_175_162)">
<path d="M181.145 513.99L33.011 472.867L0 102.61H362.734L329.688 472.809L181.145 513.99Z" fill="#264DE4"/>
<path d="M301.397 449.236L329.637 132.884H181.367V482.513L301.397 449.236Z" fill="#2965F1"/>
<path d="M75.6768 270.207L79.7468 315.617H181.367V270.207H75.6768Z" fill="#EBEBEB"/>
<path d="M67.499 178.295L71.627 223.706H181.367V178.295H181.21H67.499Z" fill="#EBEBEB"/>
<path d="M181.367 388.143L181.168 388.196L130.594 374.54L127.361 338.323H102.786H81.7764L88.1384 409.624L181.158 435.447L181.367 435.389V388.143Z" fill="#EBEBEB"/>
<path d="M85.3672 1.99036H140.367V24.9904H108.367V47.9904H140.367V70.9904H85.3672V1.99036Z" fill="black"/>
<path d="M151.367 1.99036H206.367V21.9904H174.367V25.9904H206.367V71.9904H151.367V50.9904H183.367V46.9904H151.367V1.99036Z" fill="black"/>
<path d="M217.367 1.99036H272.367V21.9904H240.367V25.9904H272.367V71.9904H217.367V50.9904H249.367V46.9904H217.367V1.99036Z" fill="black"/>
<path d="M286.766 270.207L294.964 178.295H181.21V223.706H245.198L241.066 270.207H181.21V315.617H237.128L231.857 374.511L181.21 388.181V435.425L274.304 409.624L274.987 401.952L285.658 282.401L286.766 270.207Z" fill="white"/>
<path d="M791.305 102.61L758.259 472.809L609.716 513.99L461.582 472.867L428.571 102.61H791.305Z" fill="#E44D26"/>
<path d="M609.938 482.513L729.968 449.236L758.208 132.884H609.938V482.513Z" fill="#F16529"/>
<path d="M545.698 223.706H609.938V178.295H609.781H496.07L497.157 190.478L508.318 315.617H609.938V270.207H549.848L545.698 223.706Z" fill="#EBEBEB"/>
<path d="M555.933 338.323H531.358H510.348L516.71 409.624L609.73 435.447L609.939 435.389V388.143L609.74 388.196L559.166 374.54L555.933 338.323Z" fill="#EBEBEB"/>
<path d="M462.32 1.99036H485.397V24.7904H506.507V1.99036H529.585V71.0344H506.508V47.9144H485.398V71.0344H462.321L462.32 1.99036Z" fill="black"/>
<path d="M559.932 24.8864H539.616V1.99036H603.336V24.8864H583.011V71.0344H559.933L559.932 24.8864Z" fill="black"/>
<path d="M613.449 1.99036H637.512L652.314 26.2504L667.101 1.99036H691.173V71.0344H668.191V36.8124L652.314 61.3614H651.917L636.029 36.8124V71.0344H613.449V1.99036Z" fill="black"/>
<path d="M702.658 1.99036H725.742V48.2124H758.195V71.0344H702.658V1.99036Z" fill="black"/>
<path d="M609.781 315.617H665.699L660.428 374.511L609.781 388.181V435.425L702.875 409.624L703.558 401.952L714.229 282.401L715.337 270.207H703.1H609.781V315.617Z" fill="white"/>
<path d="M609.781 223.595V223.706H719.323H719.469L720.38 213.499L722.449 190.478L723.535 178.295H609.781V206.499V223.595Z" fill="white"/>
</g>
<g clip-path="url(#clip1_175_162)">
<path d="M866.226 100.439L866.283 105.032C866.315 107.559 873.634 191.203 882.548 290.908L898.755 472.191L971.6 492.586C1011.67 503.804 1045.27 513.038 1046.28 513.109C1047.29 513.18 1081.34 504.038 1121.95 492.794C1187.06 474.767 1195.85 472.052 1196.31 469.821C1196.96 466.712 1228.85 107.043 1228.81 103.195L1228.79 100.439H1047.51H866.226Z" fill="white"/>
<path d="M972.177 493.806L898.684 473.264L897.724 467.828C896.87 462.996 865 107.039 865 102.336C865 100.633 883.608 100.44 1047.51 100.44C1220.51 100.44 1230.01 100.552 1230 102.584C1229.94 111.36 1196.95 472.03 1196.14 472.748C1195.12 473.655 1052.87 513.285 1048.12 513.987C1046.77 514.186 1012.6 505.105 972.177 493.806ZM1093.85 421.22C1118.55 414.408 1139.12 408.482 1139.55 408.053C1139.99 407.624 1142.88 378.335 1145.98 342.966C1149.07 307.598 1151.92 276.317 1152.3 273.454L1153 268.249H1099.64H1046.28V290.909V313.569H1075.09H1103.9L1103.33 316.325C1103.01 317.841 1101.78 330.867 1100.6 345.272C1099.35 360.535 1097.86 372.051 1097.04 372.873C1096.27 373.648 1084.53 377.242 1070.96 380.86L1046.28 387.437V410.522C1046.28 426.279 1046.7 433.607 1047.61 433.607C1048.34 433.607 1069.15 428.033 1093.85 421.22ZM1152.29 239.77C1151.48 233.768 1144.27 153.267 1144.27 150.231C1144.27 148.387 1140.03 148.21 1095.89 148.21H1047.51V171.906V195.602L1069.25 196.44C1081.21 196.901 1093.79 197.602 1097.21 197.998L1103.44 198.719L1104.95 217.254C1105.78 227.449 1106.77 237.856 1107.15 240.383L1107.84 244.976H1130.42H1153L1152.29 239.77Z" fill="#EAEBEC"/>
<path d="M971.6 492.586L898.755 472.191L882.547 290.909C873.633 191.204 866.314 107.56 866.282 105.033L866.225 100.44H1047.51H1228.79L1228.81 103.196C1228.85 107.044 1196.96 466.713 1196.31 469.822C1195.85 472.054 1187.06 474.769 1121.95 492.796C1081.34 504.04 1047.29 513.181 1046.28 513.11C1045.27 513.039 1011.66 503.804 971.6 492.586ZM1093.9 422.087C1119.08 415.086 1140.04 408.779 1140.48 408.073C1140.92 407.366 1143.93 376.581 1147.17 339.662C1150.41 302.742 1153.32 271.571 1153.65 270.392C1154.2 268.367 1149.92 268.249 1076.01 268.249H997.778L1001.11 233.033C1002.94 213.665 1004.48 197.768 1004.54 197.707C1004.59 197.645 1016.07 197.279 1030.05 196.893C1052.97 196.259 1100.24 198.088 1101.82 199.669C1102.41 200.26 1106.3 238.391 1106.3 243.596C1106.3 246.163 1106.65 246.201 1130.04 246.201H1153.77L1153.21 240.995C1152.9 238.132 1150.89 215.946 1148.74 191.694L1144.83 147.598L1053.3 147.284C980.479 147.034 961.763 147.285 961.755 148.509C961.749 149.355 961.216 154.733 960.569 160.459C959.004 174.316 947.067 308.2 947.067 311.898V314.794H1024.95H1102.84L1102.15 319.387C1101.77 321.914 1100.55 334.729 1099.46 347.866C1098.36 361.003 1097.11 372.09 1096.68 372.505C1095.53 373.601 1049.71 385.841 1046.86 385.814C1045.53 385.801 1033.7 382.849 1020.56 379.253L996.674 372.715L995.798 362.434C995.317 356.779 994.584 348.708 994.17 344.497L993.417 336.842H970.242H947.067L947.118 341.435C947.214 350.025 952.784 407.886 953.593 408.695C954.529 409.631 1043.54 434.652 1046.28 434.75C1047.29 434.786 1068.72 429.087 1093.9 422.087Z" fill="#F0BE25"/>
<path d="M971.6 492.586L898.755 472.191L882.547 290.909C873.633 191.204 866.314 107.56 866.282 105.033L866.225 100.44H1047.51H1228.79L1228.81 103.196C1228.85 107.044 1196.96 466.713 1196.31 469.822C1195.85 472.054 1187.06 474.769 1121.95 492.796C1081.34 504.04 1047.29 513.181 1046.28 513.11C1045.27 513.039 1011.66 503.804 971.6 492.586ZM1107.45 465.301C1139.49 456.459 1166.31 448.605 1167.05 447.847C1168.19 446.667 1195.87 143.353 1195.75 133.206L1195.72 129.837H1121.61H1047.51V138.411V146.986H1004.64C971.161 146.986 961.763 147.321 961.755 148.517C961.749 149.359 961.216 154.733 960.569 160.459C959.004 174.316 947.067 308.2 947.067 311.898V314.794H997.287H1047.51V350.315C1047.51 377.928 1047.17 385.832 1045.98 385.814C1045.13 385.801 1033.7 382.849 1020.56 379.253L996.674 372.715L995.798 362.434C995.317 356.779 994.584 348.708 994.17 344.497L993.417 336.842H970.242H947.067L947.118 341.435C947.265 354.573 952.948 408.203 954.281 409.026C955.091 409.527 976.399 415.65 1001.63 422.632L1047.51 435.326V458.352C1047.51 471.016 1047.88 481.378 1048.35 481.378C1048.81 481.378 1075.4 474.143 1107.45 465.301ZM1000.98 233.362C1002.74 214.175 1004.42 198.259 1004.72 197.994C1005.01 197.728 1014.76 197.248 1026.38 196.927L1047.51 196.342V232.295V268.249H1022.64H997.778L1000.98 233.362Z" fill="#E4A126"/>
<path d="M981.364 56.9569V45.3205H997.9H1014.44V22.6603V0H1026.07H1037.71V34.2966V68.5932H1009.54H981.364V56.9569ZM1048.73 59.4067V50.2201H1064.04C1072.46 50.2201 1079.35 49.9088 1079.35 49.5283C1079.35 49.1478 1072.46 41.3693 1064.04 32.2426L1048.73 15.6487V7.82433V0H1080.58H1112.43V9.14889V18.2978L1097.48 18.6417L1082.52 18.9856L1098.09 35.7459L1113.65 52.5062V60.5497V68.5932H1081.19H1048.73V59.4067Z" fill="#0E0E0F"/>
</g>
<defs>
<clipPath id="clip0_175_162">
<rect width="791.305" height="512" fill="white" transform="translate(0 1.99036)"/>
</clipPath>
<clipPath id="clip1_175_162">
<rect width="365" height="513.99" fill="white" transform="translate(865)"/>
</clipPath>
</defs>
</svg>
